<svg width="202" height="30" viewBox="0 0 202 30" fill="none" xmlns="http://www.w3.org/2000/svg">
<path d="M187 0C185.03 0 183.08 0.387987 181.26 1.14181C179.44 1.89563 177.786 3.00052 176.393 4.3934C173.58 7.20644 172 11.0218 172 15C172 18.9782 173.58 22.7936 176.393 25.6066C177.786 26.9995 179.44 28.1044 181.26 28.8582C183.08 29.612 185.03 30 187 30C190.978 30 194.794 28.4196 197.607 25.6066C200.42 22.7936 202 18.9782 202 15C202 13.0302 201.612 11.0796 200.858 9.25975C200.104 7.43986 198.999 5.78628 197.607 4.3934C196.214 3.00052 194.56 1.89563 192.74 1.14181C190.92 0.387987 188.97 0 187 0ZM177.25 9.75H179.5C180.04 9.75 180.25 9.99 180.46 10.605C181.54 13.755 183.355 16.5 184.105 16.5C184.39 16.5 184.525 16.38 184.525 15.675V12.42C184.435 10.92 183.64 10.785 183.64 10.26C183.64 10.005 183.85 9.75 184.21 9.75H187.675C188.155 9.75 188.305 10.005 188.305 10.56V14.94C188.305 15.405 188.5 15.57 188.65 15.57C188.935 15.57 189.175 15.405 189.685 14.895C191.275 13.11 192.4 10.38 192.4 10.38C192.55 10.05 192.805 9.75 193.36 9.75H195.565C196.24 9.75 196.39 10.095 196.24 10.56C195.955 11.85 193.27 15.645 193.27 15.645C193 16.02 192.94 16.2 193.27 16.635C193.495 16.95 194.275 17.61 194.785 18.225C195.745 19.29 196.45 20.19 196.66 20.805C196.84 21.435 196.525 21.75 195.895 21.75H193.675C192.835 21.75 192.595 21.075 191.095 19.575C189.775 18.315 189.25 18.15 188.89 18.15C188.44 18.15 188.305 18.27 188.305 18.915V20.895C188.305 21.435 188.14 21.75 186.73 21.75C184.39 21.75 181.81 20.325 179.995 17.7C177.25 13.86 176.5 10.965 176.5 10.38C176.5 10.05 176.62 9.75 177.25 9.75Z" fill="#15C9CD"/>
<circle cx="144" cy="15" r="14.5" stroke="#15C9CD"/>
<path d="M139.8 5H148.2C151.4 5 154 7.6 154 10.8V19.2C154 20.7383 153.389 22.2135 152.301 23.3012C151.214 24.3889 149.738 25 148.2 25H139.8C136.6 25 134 22.4 134 19.2V10.8C134 9.26174 134.611 7.78649 135.699 6.69878C136.786 5.61107 138.262 5 139.8 5ZM139.6 7C138.645 7 137.73 7.37928 137.054 8.05442C136.379 8.72955 136 9.64522 136 10.6V19.4C136 21.39 137.61 23 139.6 23H148.4C149.355 23 150.27 22.6207 150.946 21.9456C151.621 21.2705 152 20.3548 152 19.4V10.6C152 8.61 150.39 7 148.4 7H139.6ZM149.25 8.5C149.582 8.5 149.899 8.6317 150.134 8.86612C150.368 9.10054 150.5 9.41848 150.5 9.75C150.5 10.0815 150.368 10.3995 150.134 10.6339C149.899 10.8683 149.582 11 149.25 11C148.918 11 148.601 10.8683 148.366 10.6339C148.132 10.3995 148 10.0815 148 9.75C148 9.41848 148.132 9.10054 148.366 8.86612C148.601 8.6317 148.918 8.5 149.25 8.5ZM144 10C145.326 10 146.598 10.5268 147.536 11.4645C148.473 12.4021 149 13.6739 149 15C149 16.3261 148.473 17.5979 147.536 18.5355C146.598 19.4732 145.326 20 144 20C142.674 20 141.402 19.4732 140.464 18.5355C139.527 17.5979 139 16.3261 139 15C139 13.6739 139.527 12.4021 140.464 11.4645C141.402 10.5268 142.674 10 144 10ZM144 12C143.204 12 142.441 12.3161 141.879 12.8787C141.316 13.4413 141 14.2044 141 15C141 15.7956 141.316 16.5587 141.879 17.1213C142.441 17.6839 143.204 18 144 18C144.796 18 145.559 17.6839 146.121 17.1213C146.684 16.5587 147 15.7956 147 15C147 14.2044 146.684 13.4413 146.121 12.8787C145.559 12.3161 144.796 12 144 12Z" fill="#15C9CD"/>
<path d="M108.125 17.94C108.5 18.135 108.74 18.24 108.815 18.39C108.905 18.555 108.875 19.305 108.5 20.16C108.2 21 106.64 21.81 105.95 21.84C105.26 21.87 105.245 22.38 101.51 20.745C97.775 19.11 95.525 15.12 95.345 14.865C95.165 14.61 93.905 12.795 93.965 10.95C94.04 9.12 95 8.25 95.39 7.89C95.75 7.5 96.155 7.455 96.41 7.5H97.115C97.34 7.5 97.655 7.41 97.94 8.175L98.975 10.98C99.065 11.175 99.125 11.4 98.99 11.64L98.585 12.255L98 12.885C97.82 13.065 97.61 13.26 97.82 13.635C98 14.025 98.75 15.27 99.8 16.305C101.165 17.625 102.365 18.06 102.725 18.255C103.085 18.465 103.31 18.435 103.535 18.195L104.75 16.785C105.035 16.41 105.275 16.5 105.62 16.62L108.125 17.94ZM101 0C102.97 0 104.92 0.387987 106.74 1.14181C108.56 1.89563 110.214 3.00052 111.607 4.3934C112.999 5.78628 114.104 7.43986 114.858 9.25975C115.612 11.0796 116 13.0302 116 15C116 18.9782 114.42 22.7936 111.607 25.6066C108.794 28.4196 104.978 30 101 30C98.045 30 95.3 29.145 92.975 27.675L86 30L88.325 23.025C86.855 20.7 86 17.955 86 15C86 11.0218 87.5804 7.20644 90.3934 4.3934C93.2064 1.58035 97.0218 0 101 0ZM101 3C97.8174 3 94.7652 4.26428 92.5147 6.51472C90.2643 8.76515 89 11.8174 89 15C89 17.58 89.81 19.965 91.19 21.915L89.75 26.25L94.085 24.81C96.035 26.19 98.42 27 101 27C104.183 27 107.235 25.7357 109.485 23.4853C111.736 21.2348 113 18.1826 113 15C113 11.8174 111.736 8.76515 109.485 6.51472C107.235 4.26428 104.183 3 101 3Z" fill="#15C9CD"/>
<circle cx="58" cy="15" r="14.5" stroke="#15C9CD"/>
<path d="M63.8418 15.74C63.5618 15.17 62.7718 14.69 61.7218 15.5C60.2918 16.64 58.0118 16.64 58.0118 16.64C58.0118 16.64 55.7318 16.64 54.3018 15.5C53.2518 14.69 52.4618 15.17 52.1818 15.74C51.6818 16.74 52.2418 17.23 53.5118 18.04C54.6018 18.74 56.0918 19 57.0518 19.1L56.2518 19.9C55.1118 21.03 54.0118 22.12 53.2618 22.88C52.8118 23.34 52.8118 24.07 53.2618 24.5L53.4018 24.66C53.8518 25.11 54.5918 25.11 55.0418 24.66L58.0118 21.68C59.1618 22.81 60.2518 23.9 61.0118 24.66C61.4618 25.11 62.1918 25.11 62.6518 24.66L62.7818 24.5C63.2418 24.07 63.2418 23.34 62.7818 22.88L59.8018 19.9L59.0118 19.09C59.9618 19 61.4318 18.73 62.5118 18.04C63.7818 17.23 64.3418 16.74 63.8418 15.74ZM58.0118 7.57C59.3918 7.57 60.5118 8.69 60.5118 10.06C60.5118 11.44 59.3918 12.55 58.0118 12.55C56.6318 12.55 55.5118 11.44 55.5118 10.06C55.5118 8.69 56.6318 7.57 58.0118 7.57ZM58.0118 15.12C60.8118 15.12 63.0718 12.86 63.0718 10.06C63.0718 7.27 60.8118 5 58.0118 5C55.2118 5 52.9518 7.27 52.9518 10.06C52.9518 12.86 55.2118 15.12 58.0118 15.12Z" fill="#15C9CD"/>
<circle cx="15" cy="15" r="14.5" stroke="#15C9CD"/>
<path d="M19 5V9H17C16.31 9 16 9.81 16 10.5V13H19V17H16V25H12V17H9V13H12V9C12 7.93913 12.4214 6.92172 13.1716 6.17157C13.9217 5.42143 14.9391 5 16 5H19Z" fill="#15C9CD"/>
</svg>
