<svg width="73" height="73" viewBox="0 0 73 73" fill="none" xmlns="http://www.w3.org/2000/svg">
<path d="M55.3057 16.6309C56.3649 16.8539 56.8944 17.4949 56.8944 18.5541C56.8944 29.2568 53.1039 38.3986 45.5228 45.9797C37.9417 53.5608 28.7998 57.3514 18.0971 57.3514C17.038 57.3514 16.397 56.8218 16.174 55.7627L14.1672 47.0667C13.8885 46.0076 14.2787 45.2551 15.3378 44.8091L24.7027 40.7956C25.5946 40.4054 26.375 40.6005 27.0439 41.3809L31.141 46.3978C34.4299 44.8927 37.3285 42.8581 39.837 40.2939C42.4012 37.7297 44.4358 34.8311 45.9409 31.598L40.924 27.4172C40.1436 26.8041 39.9485 26.0236 40.3387 25.076L44.3522 15.7111C44.7981 14.7078 45.5507 14.3454 46.6098 14.6242L55.3057 16.6309Z" fill="#ED6464"/>
<circle cx="36.5" cy="36.5" r="36" stroke="#ED6464"/>
</svg>
