<svg width="45" height="45" viewBox="0 0 45 45" fill="none" xmlns="http://www.w3.org/2000/svg">
<circle cx="22.5" cy="22.5" r="22" stroke="#15C9CD"/>
<path d="M16.2 8H28.8C33.6 8 37.5 11.9 37.5 16.7V29.3C37.5 31.6074 36.5834 33.8203 34.9518 35.4518C33.3203 37.0834 31.1074 38 28.8 38H16.2C11.4 38 7.5 34.1 7.5 29.3V16.7C7.5 14.3926 8.4166 12.1797 10.0482 10.5482C11.6797 8.9166 13.8926 8 16.2 8ZM15.9 11C14.4678 11 13.0943 11.5689 12.0816 12.5816C11.0689 13.5943 10.5 14.9678 10.5 16.4V29.6C10.5 32.585 12.915 35 15.9 35H29.1C30.5322 35 31.9057 34.4311 32.9184 33.4184C33.9311 32.4057 34.5 31.0322 34.5 29.6V16.4C34.5 13.415 32.085 11 29.1 11H15.9ZM30.375 13.25C30.8723 13.25 31.3492 13.4475 31.7008 13.7992C32.0525 14.1508 32.25 14.6277 32.25 15.125C32.25 15.6223 32.0525 16.0992 31.7008 16.4508C31.3492 16.8025 30.8723 17 30.375 17C29.8777 17 29.4008 16.8025 29.0492 16.4508C28.6975 16.0992 28.5 15.6223 28.5 15.125C28.5 14.6277 28.6975 14.1508 29.0492 13.7992C29.4008 13.4475 29.8777 13.25 30.375 13.25ZM22.5 15.5C24.4891 15.5 26.3968 16.2902 27.8033 17.6967C29.2098 19.1032 30 21.0109 30 23C30 24.9891 29.2098 26.8968 27.8033 28.3033C26.3968 29.7098 24.4891 30.5 22.5 30.5C20.5109 30.5 18.6032 29.7098 17.1967 28.3033C15.7902 26.8968 15 24.9891 15 23C15 21.0109 15.7902 19.1032 17.1967 17.6967C18.6032 16.2902 20.5109 15.5 22.5 15.5ZM22.5 18.5C21.3065 18.5 20.1619 18.9741 19.318 19.818C18.4741 20.6619 18 21.8065 18 23C18 24.1935 18.4741 25.3381 19.318 26.182C20.1619 27.0259 21.3065 27.5 22.5 27.5C23.6935 27.5 24.8381 27.0259 25.682 26.182C26.5259 25.3381 27 24.1935 27 23C27 21.8065 26.5259 20.6619 25.682 19.818C24.8381 18.9741 23.6935 18.5 22.5 18.5Z" fill="#15C9CD"/>
</svg>
