<svg width="72" height="96" viewBox="0 0 72 96" fill="none" xmlns="http://www.w3.org/2000/svg">
<path d="M42 25.5V0H4.5C3.25 0 2.1875 0.4375 1.3125 1.3125C0.4375 2.1875 0 3.25 0 4.5V91.5C0 92.75 0.4375 93.8125 1.3125 94.6875C2.1875 95.5625 3.25 96 4.5 96H67.5C68.75 96 69.8125 95.5625 70.6875 94.6875C71.5625 93.8125 72 92.75 72 91.5V30H46.5C45.25 30 44.1875 29.5625 43.3125 28.6875C42.4375 27.8125 42 26.75 42 25.5ZM54 69.75C54 70.375 53.75 70.9375 53.25 71.4375C52.875 71.8125 52.375 72 51.75 72H20.25C19.625 72 19.0625 71.8125 18.5625 71.4375C18.1875 70.9375 18 70.375 18 69.75V68.25C18 67.625 18.1875 67.125 18.5625 66.75C19.0625 66.25 19.625 66 20.25 66H51.75C52.375 66 52.875 66.25 53.25 66.75C53.75 67.125 54 67.625 54 68.25V69.75ZM54 57.75C54 58.375 53.75 58.9375 53.25 59.4375C52.875 59.8125 52.375 60 51.75 60H20.25C19.625 60 19.0625 59.8125 18.5625 59.4375C18.1875 58.9375 18 58.375 18 57.75V56.25C18 55.625 18.1875 55.125 18.5625 54.75C19.0625 54.25 19.625 54 20.25 54H51.75C52.375 54 52.875 54.25 53.25 54.75C53.75 55.125 54 55.625 54 56.25V57.75ZM54 44.25V45.75C54 46.375 53.75 46.9375 53.25 47.4375C52.875 47.8125 52.375 48 51.75 48H20.25C19.625 48 19.0625 47.8125 18.5625 47.4375C18.1875 46.9375 18 46.375 18 45.75V44.25C18 43.625 18.1875 43.125 18.5625 42.75C19.0625 42.25 19.625 42 20.25 42H51.75C52.375 42 52.875 42.25 53.25 42.75C53.75 43.125 54 43.625 54 44.25ZM72 22.875V24H48V0H49.125C50.375 0 51.4375 0.4375 52.3125 1.3125L70.6875 19.6875C71.5625 20.5625 72 21.625 72 22.875Z" fill="white"/>
</svg>
