<svg width="45" height="45" viewBox="0 0 45 45" fill="none" xmlns="http://www.w3.org/2000/svg">
<path d="M22.5 0C19.5453 0 16.6194 0.58198 13.8896 1.71271C11.1598 2.84344 8.67942 4.50078 6.5901 6.5901C2.37053 10.8097 0 16.5326 0 22.5C0 28.4674 2.37053 34.1903 6.5901 38.4099C8.67942 40.4992 11.1598 42.1566 13.8896 43.2873C16.6194 44.418 19.5453 45 22.5 45C28.4674 45 34.1903 42.6295 38.4099 38.4099C42.6295 34.1903 45 28.4674 45 22.5C45 19.5453 44.418 16.6194 43.2873 13.8896C42.1566 11.1598 40.4992 8.67942 38.4099 6.5901C36.3206 4.50078 33.8402 2.84344 31.1104 1.71271C28.3806 0.58198 25.4547 0 22.5 0ZM7.875 14.625H11.25C12.06 14.625 12.375 14.985 12.69 15.9075C14.31 20.6325 17.0325 24.75 18.1575 24.75C18.585 24.75 18.7875 24.57 18.7875 23.5125V18.63C18.6525 16.38 17.46 16.1775 17.46 15.39C17.46 15.0075 17.775 14.625 18.315 14.625H23.5125C24.2325 14.625 24.4575 15.0075 24.4575 15.84V22.41C24.4575 23.1075 24.75 23.355 24.975 23.355C25.4025 23.355 25.7625 23.1075 26.5275 22.3425C28.9125 19.665 30.6 15.57 30.6 15.57C30.825 15.075 31.2075 14.625 32.04 14.625H35.3475C36.36 14.625 36.585 15.1425 36.36 15.84C35.9325 17.775 31.905 23.4675 31.905 23.4675C31.5 24.03 31.41 24.3 31.905 24.9525C32.2425 25.425 33.4125 26.415 34.1775 27.3375C35.6175 28.935 36.675 30.285 36.99 31.2075C37.26 32.1525 36.7875 32.625 35.8425 32.625H32.5125C31.2525 32.625 30.8925 31.6125 28.6425 29.3625C26.6625 27.4725 25.875 27.225 25.335 27.225C24.66 27.225 24.4575 27.405 24.4575 28.3725V31.3425C24.4575 32.1525 24.21 32.625 22.095 32.625C18.585 32.625 14.715 30.4875 11.9925 26.55C7.875 20.79 6.75 16.4475 6.75 15.57C6.75 15.075 6.93 14.625 7.875 14.625Z" fill="#15C9CD"/>
</svg>
