<svg width="45" height="45" viewBox="0 0 45 45" fill="none" xmlns="http://www.w3.org/2000/svg">
<circle cx="22.5" cy="22.5" r="22" fill="#15C9CD" stroke="#15C9CD"/>
<path d="M21.9097 6.13251C22.4179 5.80105 22.882 5.84525 23.3018 6.26509C27.5444 10.5077 29.6658 15.6343 29.6658 21.6447C29.6658 27.6551 27.5444 32.7816 23.3018 37.0242C22.882 37.4441 22.4179 37.4883 21.9097 37.1568L17.667 34.5052C17.1367 34.1958 16.9931 33.7428 17.2362 33.1462L19.3575 27.8429C19.5563 27.3347 19.943 27.1026 20.5176 27.1468L24.1304 27.5114C24.8376 25.6111 25.1801 23.6555 25.158 21.6447C25.158 19.6117 24.8155 17.6561 24.1304 15.7779L20.4844 16.1093C19.932 16.1756 19.5453 15.9436 19.3243 15.4133L17.203 10.11C16.982 9.53546 17.1367 9.09352 17.667 8.78416L21.9097 6.13251Z" fill="white"/>
</svg>
