<svg width="73" height="73" viewBox="0 0 73 73" fill="none" xmlns="http://www.w3.org/2000/svg">
<path d="M47.45 41.312C48 41.598 48.352 41.752 48.462 41.972C48.594 42.214 48.55 43.314 48 44.568C47.56 45.8 45.272 46.988 44.26 47.032C43.248 47.076 43.226 47.824 37.748 45.426C32.27 43.028 28.97 37.176 28.706 36.802C28.442 36.428 26.594 33.766 26.682 31.06C26.792 28.376 28.2 27.1 28.772 26.572C29.3 26 29.894 25.934 30.268 26H31.302C31.632 26 32.094 25.868 32.512 26.99L34.03 31.104C34.162 31.39 34.25 31.72 34.052 32.072L33.458 32.974L32.6 33.898C32.336 34.162 32.028 34.448 32.336 34.998C32.6 35.57 33.7 37.396 35.24 38.914C37.242 40.85 39.002 41.488 39.53 41.774C40.058 42.082 40.388 42.038 40.718 41.686L42.5 39.618C42.918 39.068 43.27 39.2 43.776 39.376L47.45 41.312ZM37 15C39.8891 15 42.7499 15.569 45.419 16.6747C48.0882 17.7803 50.5135 19.4008 52.5564 21.4437C54.5992 23.4865 56.2197 25.9118 57.3254 28.581C58.431 31.2501 59 34.1109 59 37C59 42.8348 56.6822 48.4305 52.5564 52.5564C48.4305 56.6822 42.8348 59 37 59C32.666 59 28.64 57.746 25.23 55.59L15 59L18.41 48.77C16.254 45.36 15 41.334 15 37C15 31.1652 17.3179 25.5695 21.4437 21.4437C25.5695 17.3179 31.1652 15 37 15ZM37 19.4C32.3322 19.4 27.8556 21.2543 24.5549 24.5549C21.2543 27.8556 19.4 32.3322 19.4 37C19.4 40.784 20.588 44.282 22.612 47.142L20.5 53.5L26.858 51.388C29.718 53.412 33.216 54.6 37 54.6C41.6678 54.6 46.1444 52.7457 49.4451 49.4451C52.7457 46.1444 54.6 41.6678 54.6 37C54.6 32.3322 52.7457 27.8556 49.4451 24.5549C46.1444 21.2543 41.6678 19.4 37 19.4Z" fill="#2BCD93"/>
<circle cx="36.5" cy="36.5" r="36" stroke="#2BCD93"/>
</svg>
