<svg width="45" height="45" viewBox="0 0 45 45" fill="none" xmlns="http://www.w3.org/2000/svg">
<circle cx="22.5" cy="22.5" r="22" stroke="#15C9CD"/>
<path d="M31.7279 24.112C31.3087 23.2569 30.126 22.5368 28.5541 23.752C26.4133 25.4622 23 25.4622 23 25.4622C23 25.4622 19.5867 25.4622 17.4459 23.752C15.874 22.5368 14.6913 23.2569 14.2721 24.112C13.5236 25.6122 14.3619 26.3473 16.2632 27.5624C17.895 28.6126 20.1256 29.0026 21.5628 29.1526L20.3652 30.3528C18.6585 32.048 17.0117 33.6832 15.8889 34.8234C15.2153 35.5134 15.2153 36.6086 15.8889 37.2537L16.0985 37.4937C16.7722 38.1688 17.88 38.1688 18.5537 37.4937L23 33.0231C24.7216 34.7183 26.3534 36.3535 27.4912 37.4937C28.1649 38.1688 29.2577 38.1688 29.9464 37.4937L30.141 37.2537C30.8296 36.6086 30.8296 35.5134 30.141 34.8234L25.6797 30.3528L24.4971 29.1376C25.9193 29.0026 28.12 28.5976 29.7368 27.5624C31.6381 26.3473 32.4764 25.6122 31.7279 24.112ZM23 11.8555C25.0659 11.8555 26.7427 13.5357 26.7427 15.5909C26.7427 17.6612 25.0659 19.3264 23 19.3264C20.9341 19.3264 19.2573 17.6612 19.2573 15.5909C19.2573 13.5357 20.9341 11.8555 23 11.8555ZM23 23.1819C27.1918 23.1819 30.5751 19.7915 30.5751 15.5909C30.5751 11.4054 27.1918 8 23 8C18.8082 8 15.4249 11.4054 15.4249 15.5909C15.4249 19.7915 18.8082 23.1819 23 23.1819Z" fill="#15C9CD"/>
</svg>
