<svg width="45" height="45" viewBox="0 0 45 45" fill="none" xmlns="http://www.w3.org/2000/svg">
<circle cx="22.5" cy="22.5" r="22" stroke="#15C9CD"/>
<path d="M35.8555 16.1797C35.9531 16.5703 36.0345 17.0586 36.0996 17.6445C36.1973 18.2305 36.2624 18.8164 36.2949 19.4023C36.3275 19.9557 36.3438 20.4766 36.3438 20.9648C36.3763 21.4531 36.3926 21.86 36.3926 22.1855V22.625C36.3926 25.5547 36.2135 27.7194 35.8555 29.1191C35.6927 29.6725 35.3997 30.1608 34.9766 30.584C34.5534 31.0072 34.0488 31.3001 33.4629 31.4629C32.8444 31.6257 31.6725 31.7559 29.9473 31.8535C28.222 31.9186 26.6432 31.9674 25.2109 32H23.0625C17.4961 32 14.0293 31.821 12.6621 31.4629C11.3926 31.1048 10.5951 30.3236 10.2695 29.1191C10.1068 28.5007 9.97656 27.6543 9.87891 26.5801C9.8138 25.4733 9.76497 24.5456 9.73242 23.7969V22.625C9.73242 19.7279 9.91146 17.5794 10.2695 16.1797C10.4323 15.5938 10.7253 15.0892 11.1484 14.666C11.5716 14.2428 12.0762 13.9499 12.6621 13.7871C13.2806 13.6243 14.4525 13.5104 16.1777 13.4453C17.903 13.3477 19.4818 13.2826 20.9141 13.25H23.0625C28.6289 13.25 32.0957 13.429 33.4629 13.7871C34.0488 13.9499 34.5534 14.2428 34.9766 14.666C35.3997 15.0892 35.6927 15.5938 35.8555 16.1797ZM20.3281 26.6289L27.3105 22.625L20.3281 18.6699V26.6289Z" fill="#15C9CD"/>
</svg>
