<svg width="45" height="45" viewBox="0 0 45 45" fill="none" xmlns="http://www.w3.org/2000/svg">
<path d="M33.1875 26.91C33.75 27.2025 34.11 27.36 34.2225 27.585C34.3575 27.8325 34.3125 28.9575 33.75 30.24C33.3 31.5 30.96 32.715 29.925 32.76C28.89 32.805 28.8675 33.57 23.265 31.1175C17.6625 28.665 14.2875 22.68 14.0175 22.2975C13.7475 21.915 11.8575 19.1925 11.9475 16.425C12.06 13.68 13.5 12.375 14.085 11.835C14.625 11.25 15.2325 11.1825 15.615 11.25H16.6725C17.01 11.25 17.4825 11.115 17.91 12.2625L19.4625 16.47C19.5975 16.7625 19.6875 17.1 19.485 17.46L18.8775 18.3825L18 19.3275C17.73 19.5975 17.415 19.89 17.73 20.4525C18 21.0375 19.125 22.905 20.7 24.4575C22.7475 26.4375 24.5475 27.09 25.0875 27.3825C25.6275 27.6975 25.965 27.6525 26.3025 27.2925L28.125 25.1775C28.5525 24.615 28.9125 24.75 29.43 24.93L33.1875 26.91ZM22.5 0C25.4547 0 28.3806 0.58198 31.1104 1.71271C33.8402 2.84344 36.3206 4.50078 38.4099 6.5901C40.4992 8.67942 42.1566 11.1598 43.2873 13.8896C44.418 16.6194 45 19.5453 45 22.5C45 28.4674 42.6295 34.1903 38.4099 38.4099C34.1903 42.6295 28.4674 45 22.5 45C18.0675 45 13.95 43.7175 10.4625 41.5125L0 45L3.4875 34.5375C1.2825 31.05 0 26.9325 0 22.5C0 16.5326 2.37053 10.8097 6.5901 6.5901C10.8097 2.37053 16.5326 0 22.5 0ZM22.5 4.5C17.7261 4.5 13.1477 6.39642 9.77208 9.77208C6.39642 13.1477 4.5 17.7261 4.5 22.5C4.5 26.37 5.715 29.9475 7.785 32.8725L5.625 39.375L12.1275 37.215C15.0525 39.285 18.63 40.5 22.5 40.5C27.2739 40.5 31.8523 38.6036 35.2279 35.2279C38.6036 31.8523 40.5 27.2739 40.5 22.5C40.5 17.7261 38.6036 13.1477 35.2279 9.77208C31.8523 6.39642 27.2739 4.5 22.5 4.5Z" fill="#15C9CD"/>
</svg>
