<svg width="244" height="40" viewBox="0 0 244 40" fill="none" xmlns="http://www.w3.org/2000/svg">
<path fill-rule="evenodd" clip-rule="evenodd" d="M30.9698 16.6958C31.6356 17.0605 47.2279 37.3364 48.3017 38.7739C49.0105 39.718 49.0534 39.954 50.5139 39.9325C52.6401 39.9111 58.9114 40.0613 60.1356 39.8467V0.131836L49.3112 0.174748V23.626C48.7313 23.2827 47.3138 21.223 46.8843 20.6866C44.2211 17.3609 32.5376 1.91268 30.8195 0.131836L19.8662 0.196204L19.8877 39.8682C21.4126 40.0183 29.6812 40.0827 30.9269 39.8252L30.9698 16.6958Z" fill="#2BCD93"/>
<path fill-rule="evenodd" clip-rule="evenodd" d="M80.3668 30.8139C80.195 29.8699 80.195 9.85152 80.3668 9.57259C80.646 9.07911 83.7387 9.4224 84.3186 9.48677C86.7884 9.74424 88.9361 10.7741 90.3751 12.2331C96.1095 18.0262 94.5202 31.7794 80.3668 30.8139ZM69.3706 39.8469C70.6377 40.0614 80.9252 39.9327 83.0729 39.9327C88.2274 39.9327 90.8476 39.5679 94.5202 37.4653C107.879 29.8055 108.673 11.0316 94.6061 2.70671C89.0865 -0.55459 83.3951 0.131999 76.3936 0.131999C74.6969 0.131999 70.831 -0.0611041 69.3921 0.217823L69.3706 39.8469Z" fill="#2BCD93"/>
<path fill-rule="evenodd" clip-rule="evenodd" d="M221.771 8.62864C223.103 8.3068 226.239 8.73592 227.184 9.33668C231.457 12.1259 228.966 19.0133 221.771 17.5328V8.62864ZM232.274 23.9052C233.047 23.4761 234.078 23.3259 235.023 22.7681C237.707 21.2232 239.189 19.2708 240.091 16.2026C240.671 14.2072 240.821 11.4823 240.306 9.2294C239.812 7.0409 239.06 5.64627 237.729 4.05853C237.17 3.41485 236.376 2.857 235.624 2.29915C234.829 1.71984 233.97 1.41946 233.004 1.03325C230.813 0.175013 228.73 0.132101 226.131 0.132101C221.385 0.132101 215.414 -0.189737 210.775 0.175013L210.797 39.9328L221.771 39.8684V25.8792C222.094 25.9865 221.943 25.9221 222.201 26.2439C222.287 26.3298 222.416 26.5443 222.48 26.6516C222.695 26.9949 222.824 27.2524 223.017 27.5527C223.447 28.2608 223.769 28.7114 224.112 29.2692L230.856 39.9328L244 39.847C243.979 38.624 241.917 36.5213 241.272 35.6631L235.259 27.8102C234.615 26.952 232.725 24.8493 232.274 23.9052Z" fill="#FC6868"/>
<path fill-rule="evenodd" clip-rule="evenodd" d="M143.466 0.518459C144.111 1.31233 146.022 6.20427 146.495 7.27707C147.461 9.57285 148.556 11.9545 149.372 14.2288L153.797 24.6993C154.505 25.9866 155.085 27.746 155.622 28.9904C156.052 29.9989 157.147 32.2088 157.34 33.2816C157.877 34.4831 158.221 35.4272 158.736 36.6073C159.102 37.4655 159.681 39.0532 160.154 39.9115L168.766 39.8686C169.41 38.9674 172.203 31.8012 173.062 29.9559C176.154 23.3046 179.634 14.5935 182.64 7.72764C182.984 6.95523 183.328 6.09699 183.671 5.23876C184.144 4.05868 185.583 1.39815 185.733 0.132253L173.964 0.218077C173.47 1.0334 173.169 2.19202 172.761 3.11462C172.31 4.12305 172.009 5.08857 171.601 6.01117C170.849 7.79201 169.969 9.98051 169.282 11.7613C168.487 13.8211 167.714 15.4947 166.941 17.533C166.661 18.2839 165.072 22.5322 164.535 23.133C164.514 23.0901 164.492 23.0257 164.471 22.9828C164.449 22.9613 164.406 22.897 164.385 22.854L164.149 22.3391C164.041 22.1031 163.955 21.8456 163.848 21.6096L155.322 0.175165C153.303 0.0678857 151.112 0.132253 149.05 0.132253C147.976 0.132253 143.466 -0.146673 143.466 0.518459Z" fill="#FC6868"/>
<path fill-rule="evenodd" clip-rule="evenodd" d="M157.34 33.2812C157.147 32.2084 156.052 29.9985 155.622 28.99C155.085 27.7456 154.505 25.9862 153.797 24.6989L145.678 24.7632C145.958 23.7119 148.964 14.7433 149.372 14.2284C148.556 11.9541 147.461 9.57245 146.495 7.27667C146.022 6.20388 144.111 1.31193 143.466 0.518066C143.015 2.17017 142.156 3.97247 141.598 5.53875C138.741 13.3487 135.004 22.1027 132.105 30.0199C131.611 31.3716 130.838 33.5387 130.193 34.9333C129.85 35.6843 128.475 39.1601 128.389 39.9325L139.901 39.8467C140.395 39.0958 140.868 37.5724 141.276 36.5425C141.598 35.7272 142.135 34.1395 142.543 33.2812H157.34Z" fill="#2BCD93"/>
<path fill-rule="evenodd" clip-rule="evenodd" d="M111.959 39.9113L122.913 39.8684L122.87 0.174994C121.238 0.0462584 113.291 -0.0395652 111.938 0.239361L111.959 39.9113Z" fill="#2BCD93"/>
<path fill-rule="evenodd" clip-rule="evenodd" d="M190.759 39.9325L201.626 39.8682V0.131836L190.737 0.174748L190.759 39.9325Z" fill="#FC6868"/>
<path fill-rule="evenodd" clip-rule="evenodd" d="M0 39.9325L10.8244 39.9111L10.8029 0.131836L0 0.153292V39.9325Z" fill="#2BCD93"/>
</svg>
