<svg xmlns="http://www.w3.org/2000/svg" viewBox="0 0 522.781 522.782" fill="#fff"><path d="M512.703 455.395l-75.353-75.2c-7.191-7.19-16.983-10.557-26.469-10.098l-36.262-36.261c61.735-81.625 55.463-198.365-18.896-272.799-81.318-81.319-213.28-81.319-294.599.153-81.473 81.472-81.473 213.282-.153 294.601 74.435 74.435 191.174 80.631 272.799 18.896l36.261 36.262c-.459 9.485 2.907 19.277 10.098 26.469l75.2 75.199c13.464 13.464 35.419 13.464 48.883 0l8.339-8.339c13.616-13.464 13.616-35.266.152-48.883zM310.666 310.733c-56.457 56.457-148.18 56.61-204.637.153s-56.457-148.027.153-204.638c56.457-56.457 148.181-56.61 204.638-.153s56.227 148.028-.154 204.638z"/><path d="M265.072 186.727h-34.119v-34.119c0-12.316-9.945-22.262-22.108-22.262h-.229c-12.164 0-22.108 9.945-22.108 22.262v34.119h-34.119c-12.316 0-22.261 9.945-22.261 22.109v.153c0 12.164 9.945 22.108 22.261 22.108h34.119v34.119c0 12.317 9.945 22.262 22.108 22.262h.153c12.163 0 22.108-9.944 22.108-22.262v-34.119h34.119c12.316 0 22.262-9.945 22.262-22.108v-.153c.152-12.164-9.792-22.109-22.186-22.109z"/></svg>