<svg viewBox="0 0 512 512.001" xmlns="http://www.w3.org/2000/svg"><path d="M0 216.8h150.668v78.4H0zm0 0M0 108.398h60.336v78.403H0zm0 0M0 325.2h60.336v78.402H0zm0 0M90.336 325.2h150.668v78.402H90.336zm0 0M271 325.2h150.668v78.402H271zm0 0M271 108.398h150.668v78.403H271zm0 0M0 433.602h150.668V512H0zm0 0M90.336 108.398h150.668v78.403H90.336zm0 0M180.668 216.8h150.664v78.4H180.668zm0 0M0 0h150.668v78.402H0zm0 0M180.668 433.602h150.664V512H180.668zm0 0M361.332 0H512v78.402H361.332zm0 0M180.668 0h150.664v78.402H180.668zm0 0M451.668 108.398H512v78.403h-60.332zm0 0M361.332 433.602H512V512H361.332zm0 0M361.332 216.8H512v78.4H361.332zm0 0M451.668 325.2H512v78.402h-60.332zm0 0"/></svg>