<svg xmlns="http://www.w3.org/2000/svg" viewBox="0 0 45.964 45.964"><path d="M7.071 30.834V11.062H4.042C1.803 11.062 0 12.893 0 15.13v26.732a4.04 4.04 0 004.042 4.051h26.733c2.238 0 4.076-1.811 4.076-4.051v-2.92H15.179c-4.446.001-8.108-3.661-8.108-8.108z"/><path d="M41.913.05H15.179c-2.238 0-4.066 1.813-4.066 4.051v26.733a4.075 4.075 0 004.066 4.067h26.734c2.237 0 4.051-1.826 4.051-4.067V4.102A4.05 4.05 0 0041.913.05zm-.55 28.539a1.261 1.261 0 01-1.12.656H17.336c-.403 0-.782-.18-1.022-.502a1.266 1.266 0 01-.197-1.123l3.277-10.839a1.953 1.953 0 013.462-.564l4.582 6.437a1.951 1.951 0 002.689.484l4.219-2.865a1.949 1.949 0 011.48-.299c.515.102.966.408 1.253.848l4.229 6.472c.256.393.277.885.055 1.295z"/></svg>