<svg height="512pt" viewBox="0 -54 512 511" width="512pt" xmlns="http://www.w3.org/2000/svg"><path d="M496 370.617h-10.266V16.5c0-8.836-7.164-16-16-16h-97.593c-8.836 0-16 7.164-16 16v354.117H320.8V91.164c0-8.836-7.164-16-16-16h-97.594c-8.836 0-16 7.164-16 16v279.453h-35.34V165.832c0-8.836-7.164-16-16-16H42.273c-8.835 0-16 7.164-16 16v204.785H16c-8.836 0-16 7.164-16 16s7.164 16 16 16h480c8.836 0 16-7.164 16-16s-7.164-16-16-16zM388.137 32.5h65.593v338.117h-65.593zm-164.93 338.117V107.164h65.594v263.453zM58.273 181.832h65.594v188.785H58.273zm0 0"/></svg>