<svg xmlns="http://www.w3.org/2000/svg" width="438.529" height="438.529" viewBox="0 0 438.529 438.529"><path d="M180.156 225.828c-1.903-1.902-4.093-2.854-6.567-2.854-2.475 0-4.665.951-6.567 2.854l-94.787 94.787-41.112-41.117c-3.617-3.61-7.895-5.421-12.847-5.421s-9.235 1.811-12.851 5.421c-3.617 3.621-5.424 7.905-5.424 12.854v127.907c0 4.948 1.807 9.229 5.424 12.847 3.619 3.613 7.902 5.424 12.851 5.424h127.906c4.949 0 9.23-1.811 12.847-5.424 3.615-3.617 5.424-7.898 5.424-12.847s-1.809-9.233-5.424-12.854l-41.112-41.104 94.787-94.793c1.902-1.903 2.853-4.086 2.853-6.564 0-2.478-.953-4.66-2.853-6.57l-32.548-32.546zM433.11 5.424C429.496 1.807 425.212 0 420.263 0H292.356c-4.948 0-9.227 1.807-12.847 5.424-3.614 3.615-5.421 7.898-5.421 12.847s1.807 9.233 5.421 12.847l41.106 41.112-94.786 94.787c-1.901 1.906-2.854 4.093-2.854 6.567s.953 4.665 2.854 6.567l32.552 32.548c1.902 1.903 4.086 2.853 6.563 2.853s4.661-.95 6.563-2.853l94.794-94.787 41.104 41.109c3.62 3.616 7.905 5.428 12.854 5.428s9.229-1.812 12.847-5.428c3.614-3.614 5.421-7.898 5.421-12.847V18.268c.003-4.953-1.793-9.228-5.417-12.844z"/></svg>